<svg version="1.1" xmlns="http://www.w3.org/2000/svg" xmlns:xlink="http://www.w3.org/1999/xlink" width="48" height="48"><defs><linearGradient x1="11.67152" y1="11.67152" x2="44.46021" y2="44.46021" gradientUnits="userSpaceOnUse" id="color-1"><stop offset="0" stop-color="#000000" stop-opacity="0"></stop><stop offset="1" stop-color="#000000" stop-opacity="0"></stop></linearGradient><filter id="dropshadow-base"><feColorMatrix type="matrix" values="0 0 0 0 0  0 0 0 0 0  0 0 0 0 0  0 0 0 .8 0"></feColorMatrix> <feOffset dx="0" dy="1"></feOffset> <feGaussianBlur stdDeviation="1"></feGaussianBlur> <feComposite in="SourceGraphic"></feComposite></filter><filter id="dropshadow-banner" x="-10%" y="-10%" width="120%" height="130%"><feColorMatrix type="matrix" values="0 0 0 0 0  0 0 0 0 0  0 0 0 0 0  0 0 0 .4 0"></feColorMatrix> <feOffset dx="0" dy="1"></feOffset> <feGaussianBlur stdDeviation="0.5"></feGaussianBlur> <feComposite in="SourceGraphic"></feComposite></filter></defs><g fill="none" fill-rule="nonzero" stroke="none" stroke-width="none" stroke-linecap="butt" stroke-linejoin="miter" stroke-miterlimit="10" stroke-dasharray="" stroke-dashoffset="0" font-family="none" font-weight="none" font-size="none" text-anchor="none" style="mix-blend-mode: normal"><path d="M2,24c0,-12.15026 9.84974,-22 22,-22c12.15026,0 22,9.84974 22,22c0,12.15026 -9.84974,22 -22,22c-12.15026,0 -22,-9.84974 -22,-22z" id="base 1 5" fill="#fcfcfc" stroke-width="1"></path><path d="M34.87785,31.17931c0.16816,-0.07601 0.32626,-0.17033 0.47175,-0.28043h-0.75218zM36.32848,19.80325l-1.73106,0l1.73106,1.73106zM19.8105,31.39709l1.7238,0l-1.72284,-1.72284zM44.46021,22.26894v9.83281c-1.11147,2.80456 -2.78291,5.32623 -4.87638,7.42707h-14.84919l-4.93139,4.93139l-8.13173,-8.13173l0.01233,-22.19127c0,-1.3623 1.09107,-2.4657 2.45337,-2.4657h19.72557c0.68115,0 1.29757,0.27585 1.74371,0.72199l8.13173,8.13173l0,0c0.44614,0.44614 0.72199,1.06256 0.72199,1.74371z" fill="url(#color-1)" stroke-width="1"></path><path d="M33.86279,11.67152h-19.72557c-1.3623,0 -2.45337,1.1034 -2.45337,2.4657l-0.01233,22.19127l4.93139,-4.93139h17.25987c1.3623,0 2.4657,-1.1034 2.4657,-2.4657v-14.79418c0,-1.3623 -1.1034,-2.4657 -2.4657,-2.4657zM19.06861,26.4657h-2.4657v-2.4657h2.4657zM19.06861,22.76715h-2.4657v-2.4657h2.4657zM19.06861,19.06861h-2.4657v-2.4657h2.4657zM27.69854,26.4657h-6.16424v-2.4657h6.16424zM31.39709,22.76715h-9.86279v-2.4657h9.86279zM31.39709,19.06861h-9.86279v-2.4657h9.86279z" fill="none" stroke-width="0"></path><path d="M36.32848,14.13721v14.79418c0,1.3623 -1.1034,2.4657 -2.4657,2.4657h-17.25987l-4.93139,4.93139l0.01233,-22.19127c0,-1.3623 1.09107,-2.4657 2.45337,-2.4657h19.72557c1.3623,0 2.4657,1.1034 2.4657,2.4657zM19.06861,24h-2.4657v2.4657h2.4657zM19.06861,20.30146h-2.4657v2.4657h2.4657zM19.06861,16.60291h-2.4657v2.4657h2.4657zM27.69854,24h-6.16424v2.4657h6.16424zM31.39709,20.30146h-9.86279v2.4657h9.86279zM31.39709,16.60291h-9.86279v2.4657h9.86279z" fill="#690000" stroke-width="0"></path><path d="M2,24c0,-12.15026 9.84974,-22 22,-22c12.15026,0 22,9.84974 22,22c0,12.15026 -9.84974,22 -22,22c-12.15026,0 -22,-9.84974 -22,-22z" id="base 1 1 1" fill="none" stroke-width="1"></path><g fill="#000000" stroke-width="1" font-family="Roboto, sans-serif" font-weight="400" font-size="14" text-anchor="start"></g><rect x="2" y="2" width="44" height="22" fill="none" stroke-width="1"></rect><path d="M2,24v-22h44v22z" fill="none" stroke-width="1"></path><path d="M2,24v-22h44v22z" fill="none" stroke-width="1"></path><path d="M2,24v-22h44v22z" fill="none" stroke-width="1"></path><path d="M2,24v-22h44v22z" fill="none" stroke-width="1"></path></g></svg>